<svg xmlns="http://www.w3.org/2000/svg" width="150" height="29" viewBox="0 0 150 29"><g><g><path fill="#1266b0" d="M7.797 22.599c0 2.306-2.56 2.421-2.56 0v-9.224c0-2.306 2.56-2.306 2.56-.115zm0-14.067c0 .461-.116.922-.232.692C6.168 6.918 0 7.034 0 12.337V24.79c0 3.228 4.19 6.226 7.565 2.19.116-.115.232-.23.349-.115v1.73h5.353V0H7.914v8.532z"/></g><g><path fill="#1266b0" d="M70.877 22.483c0 1.73-2.56 1.73-2.56-.115V8.07H63.08v16.488c0 4.843 5.819 5.535 7.914 2.421v1.615h5.353V8.07h-5.47z"/></g><g><path fill="#1266b0" d="M95.43 28.594h5.353V8.07H95.43z"/></g><g><path fill="#1266b0" d="M95.43 5.304h5.353V0H95.43z"/></g><g><path fill="#1266b0" d="M146.167 16.95l3.491-8.879h-5.702l-2.91 7.956V0h-5.586v28.595h5.587V18.448l3.025 10.147h5.586z"/></g><g><path fill="#1266b0" d="M23.277 16.14h-2.56v-3.344c0-1.5 2.56-1.615 2.56 0zm-7.797 7.61c0 6.802 13.15 7.148 13.15 0v-2.537h-5.236v2.536c0 1.845-2.677 1.845-2.677 0v-4.612h7.914v-6.341c0-6.688-13.151-6.688-13.151 0z"/></g><g><path fill="#1266b0" d="M54.697 16.14h-2.56v-3.344c0-1.5 2.56-1.615 2.56 0zM46.9 23.75c0 6.802 13.15 7.148 13.15 0v-2.537h-5.236v2.536c0 1.845-2.677 1.845-2.677 0v-4.612h7.914v-6.341c0-6.688-13.151-6.688-13.151 0z"/></g><g><path fill="#1266b0" d="M31.19 12.796v10.953c0 6.803 13.15 7.15 13.15 0v-2.536h-5.236v2.536c0 1.845-2.677 1.845-2.677 0V12.796c0-1.5 2.56-1.615 2.56 0v3.344h5.354v-3.344c0-6.688-13.151-6.688-13.151 0"/></g><g><path fill="#1266b0" d="M119.75 12.796v10.953c0 6.803 13.15 7.15 13.15 0v-2.536h-5.236v2.536c0 1.845-2.677 1.845-2.677 0V12.796c0-1.5 2.56-1.615 2.56 0v3.344h5.354v-3.344c0-6.688-13.151-6.688-13.151 0"/></g><g><path fill="#1266b0" d="M84.604 9.687V8.073H79.25v20.524h5.237V14.299c0-1.73 2.56-1.73 2.56.116v14.182h5.238V12.109c.116-4.843-5.703-5.535-7.681-2.422"/></g><g><path fill="#1266b0" d="M109.164 9.687V8.073h-5.354v20.524h5.237V14.299c0-1.73 2.56-1.73 2.56.116v14.182h5.238V12.109c.116-4.843-5.703-5.535-7.681-2.422"/></g></g></svg>