<svg xmlns="http://www.w3.org/2000/svg" width="125" height="50" viewBox="0 0 125 50"><g><g><path fill="#161615" d="M39.878 0L14.93 24.873l24.948 24.97h13.968l-24.949-24.97L53.846 0z"/></g><g><path fill="#d90016" d="M0 0v49.843h34.87l-9.921-9.988H9.922V9.988h15.027L34.87 0z"/></g><g><path fill="#161615" d="M72.538 24.87l-6.646 10.372V24.87H58.86v24.97h7.032v-6.147l2.408-3.457 4.527 9.603h8.284l-7.898-15.75 6.357-9.219z"/></g><g><path fill="#161615" d="M105.96 24.87v24.97h18.976V43.98h-11.655v-4.226h9.44v-5.377h-9.44v-3.65h11.463V24.87z"/></g><g><path fill="#161615" d="M89.298 39.755h4.528l.096.097h.29l.095.096h.096v.096h.193v.096h.193v.096h.096l.097.096h.096v.096h.096v.096l.097.096.096.096v.096h.096v.192h.096l.097.096v.288h.096v1.249l-.096.096v.288h-.097l-.096.096v.096l-.096.096v.096h-.096v.096h-.097v.096h-.096v.096h-.096v.096h-.097l-.096.096h-.097l-.096.096H94.5l-.097.096h-.096v.096h-.289l-.096.096h-.482l-.096.096h-4.046zm0-9.507h4.142l.097.096h.289l.096.096h.192l.097.096h.096v.096h.096l.097.096h.192v.096h.097l.096.096v.096h.097v.192l.096.096v.096h.096v.192h.097v.385l.096.096v.672h-.096v.288l-.097.096v.192h-.096v.096h-.096v.192l-.097.096v.096h-.096v.096h-.097l-.096.096H94.5v.096h-.097l-.096.097h-.193l-.096.095h-.289l-.096.097h-4.335zM82.17 24.87v24.97h12.908l.289-.097h.77l.29-.096h.48l.194-.096h.192l.193-.096h.289l.096-.096.29-.096h.385l.192-.096h.193l.193-.096.192-.096.193-.096.193-.096.096-.096.192-.096.193-.096h.096l.193-.096.096-.192.193-.096.096-.096.193-.097.193-.191.192-.193.097-.095.096-.193.193-.096.096-.096v-.096l.096-.192.097-.192.096-.096.096-.096.097-.192.096-.192.096-.192v-.096l.097-.192v-.192l.096-.192.096-.096v-.193l.097-.192v-.384l.096-.192v-.576l.096-.192v-.96h-.096v-.769l-.096-.096V41.1l-.097-.096v-.096l-.096-.096v-.288l-.096-.096v-.096l-.097-.096v-.288l-.096-.096-.096-.192-.097-.097-.096-.096v-.191l-.096-.096-.097-.097-.096-.096v-.096h-.096l-.097-.096-.096-.096-.096-.192-.097-.096-.096-.096h-.096l-.097-.096-.096-.096-.193-.096-.096-.096-.096-.096-.097-.096h-.096l-.096-.096-.097-.096h-.289l-.192-.192H99.7l-.192-.096h-.097l-.192-.097h-.096l-.097-.096h-.192l-.193-.095h-.097l-.096-.097h.193l.096-.095h.193l.096-.097h.097l.096-.096.096-.096h.096l.193-.096h.096l.097-.096v-.096h.289l.096-.096v-.096h.193l.096-.096v-.096l.096-.096.097-.096.096-.096h.096l.097-.096h.096l.096-.096v-.096l.097-.096.096-.096.096-.192.097-.096.096-.096.096-.096v-.096l.097-.096.096-.097v-.288l.096-.096v-.096l.097-.192v-.096l.096-.096v-.096l.096-.096v-.288l.097-.096v-.288l.096-.193v-2.016l-.096-.096v-.384l-.097-.096v-.288l-.096-.096v-.096l-.096-.096v-.193l-.097-.096v-.192h-.096v-.288l-.096-.096v-.192h-.097v-.096l-.096-.096-.096-.096-.097-.096v-.096h-.096v-.096l-.096-.096v-.096l-.097-.096-.096-.096v-.096h-.096l-.097-.096v-.096h-.096l-.096-.096-.097-.096-.096-.096-.096-.097-.097-.095h-.096v-.097h-.096l-.097-.096-.096-.096h-.096v-.096l-.097-.095h-.192l-.097-.097h-.096l-.096-.096h-.096v-.096h-.097l-.096-.096h-.096l-.097-.096h-.193l-.096-.096h-.096l-.097-.096h-.481l-.096-.096h-.386l-.096-.096h-.482l-.096-.096h-1.156l-.096-.096z"/></g></g></svg>