<svg xmlns="http://www.w3.org/2000/svg" width="150" height="56" viewBox="0 0 150 56"><defs><clipPath id="7jrja"><path d="M19.81 39.41h16.605v16.462H19.81z"/></clipPath><clipPath id="7jrjb"><path d="M0 .17h150v36.494H0z"/></clipPath></defs><g><g><path fill="#1d1d1b" d="M.23 55.6V39.69h3.459L7.8 50.954c.377 1.052.655 1.837.828 2.355.196-.576.507-1.428.926-2.55L13.71 39.69h3.091V55.6h-2.217V42.286L9.54 55.6H7.466l-5.02-13.544v13.544z"/></g><g><g/><g clip-path="url(#7jrja)"><path fill="#1d1d1b" d="M19.81 47.855c0-2.64.774-4.71 2.321-6.202 1.549-1.494 3.546-2.243 5.993-2.243 1.605 0 3.047.348 4.336 1.051 1.286.704 2.268 1.683 2.944 2.938.674 1.255 1.011 2.676 1.011 4.27 0 1.61-.355 3.056-1.063 4.329a6.986 6.986 0 0 1-3.02 2.892 9.268 9.268 0 0 1-4.22.982c-1.632 0-3.094-.36-4.38-1.085-1.288-.722-2.264-1.71-2.928-2.961a8.362 8.362 0 0 1-.994-3.971m2.367.03c0 1.915.565 3.428 1.69 4.532 1.125 1.103 2.537 1.655 4.234 1.655 1.728 0 3.151-.558 4.271-1.67 1.118-1.12 1.676-2.698 1.676-4.744 0-1.291-.241-2.425-.716-3.39a5.162 5.162 0 0 0-2.099-2.245c-.918-.537-1.952-.8-3.098-.8-1.625 0-3.025.512-4.196 1.537-1.175 1.024-1.762 2.73-1.762 5.125"/></g></g><g><path fill="#1d1d1b" d="M39.35 55.6V39.69h2.36l9.118 12.491V39.69h2.202V55.6h-2.354l-9.125-12.503v12.504z"/></g><g><path fill="#1d1d1b" d="M61.312 55.6V41.57H55.59v-1.88h13.765v1.88h-5.742V55.6z"/></g><g><path fill="#1d1d1b" d="M71.62 55.6V39.69h6.515c1.327 0 2.393.16 3.195.485.801.321 1.43.818 1.882 1.485.456.67.68 1.373.68 2.1 0 .68-.2 1.32-.604 1.922-.4.597-1.011 1.083-1.822 1.452 1.05.282 1.855.764 2.42 1.443.565.68.85 1.486.85 2.41 0 .746-.173 1.44-.519 2.08-.343.636-.765 1.133-1.272 1.482-.504.345-1.139.609-1.9.784-.76.18-1.699.267-2.8.267zm2.298-9.223h3.759c1.018 0 1.747-.064 2.19-.188.586-.158 1.027-.422 1.322-.791.298-.367.443-.83.443-1.389 0-.524-.136-.994-.416-1.394-.273-.4-.668-.676-1.185-.825-.51-.148-1.391-.22-2.643-.22h-3.47zm0 7.344h4.327c.744 0 1.263-.024 1.564-.076.528-.085.972-.23 1.325-.43.358-.206.65-.5.877-.888.231-.385.344-.834.344-1.34 0-.591-.165-1.106-.499-1.546-.33-.436-.79-.742-1.379-.921-.59-.18-1.434-.267-2.542-.267h-4.017z"/></g><g><path fill="#1d1d1b" d="M87.8 55.6V39.69h2.299v14.031h8.55v1.88z"/></g><g><path fill="#1d1d1b" d="M99.48 55.6l6.668-15.91h2.475l7.106 15.91h-2.615l-2.025-4.819h-7.263l-1.907 4.82zm5.01-6.525h5.895l-1.816-4.41c-.55-1.338-.964-2.44-1.231-3.302a18.954 18.954 0 0 1-.94 3.042z"/></g><g><path fill="#1d1d1b" d="M117.54 55.6V39.69h2.357l9.121 12.491V39.69h2.202V55.6h-2.357l-9.121-12.503v12.504z"/></g><g><path fill="#1d1d1b" d="M147.47 50.023l2.3.527c-.48 1.73-1.348 3.05-2.6 3.959-1.25.906-2.781 1.36-4.588 1.36-1.873 0-3.394-.348-4.567-1.045-1.175-.697-2.068-1.71-2.678-3.034a10.055 10.055 0 0 1-.917-4.265c0-1.655.346-3.098 1.035-4.334a6.799 6.799 0 0 1 2.949-2.81c1.275-.643 2.678-.961 4.215-.961 1.733 0 3.194.406 4.382 1.215 1.184.813 2.01 1.95 2.474 3.42l-2.265.488c-.401-1.158-.987-2.001-1.752-2.532-.765-.527-1.728-.79-2.891-.79-1.333 0-2.447.297-3.343.879a4.644 4.644 0 0 0-1.889 2.36 8.759 8.759 0 0 0-.546 3.053c0 1.355.215 2.534.643 3.543.431 1.01 1.103 1.767 2.007 2.265.908.5 1.892.749 2.952.749 1.287 0 2.374-.34 3.27-1.022.89-.68 1.497-1.689 1.81-3.025"/></g><g><g/><g clip-path="url(#7jrjb)"><path fill="#e23b2d" d="M74.778.3C24.184.3 0 35.537 0 35.537s22.842-25.501 70.024-25.501C94.468 34.436 122.08 36.794 150 36.794c0 0-47.181-1.323-75.222-36.494"/></g></g></g></svg>