<svg xmlns="http://www.w3.org/2000/svg" width="132" height="50" viewBox="0 0 132 50"><g><g><path fill="#50504f" d="M44.087 38.306v11.276H36.46V22.63h13.539c3.274 0 4.443 3.177 4.443 4.974v5.624c0 1.485-1.17 2.422-2.027 2.578 2.105.39 2.183 1.797 2.183 3.281v10.39H46.88v-9.374c0-1.64-.78-1.875-2.027-1.875zm0-11.041v6.432s.376.078 1.156 0c.78-.078 1.637-1.406 1.56-3.281-.079-1.875-.469-3.151-1.248-3.151z"/></g><g><path fill="#50504f" d="M82.756 22.63v11.145h-2.82V22.63H72.31v26.952h7.627V38.306h2.82v11.276h7.626V22.63z"/></g><g><path fill="#50504f" d="M96.381 22.63h14.812v26.952h-7.626V38.306h-2.82v11.276H93.12V27.29c0-1.406.394-4.661 3.261-4.661m4.37 6.845v4.29h2.812v-6.318s-2.812-.858-2.812 2.028"/></g><g><path fill="#50504f" d="M69.88 45.024h-5.003v-6.718h5.003v-4.53h-5.003V27.16h5.003V22.63H57.25v26.952h7.627v-.027h5.003z"/></g><g><path fill="#50504f" d="M113.94 43.54V22.63h7.627v20.52s-.156 2.187 1.403 2.187c1.56 0 1.404-2.187 1.404-2.187V22.63H132v20.91c0 5.86-2.637 6.25-9.03 6.25-6.392 0-9.03-.547-9.03-6.25"/></g><g><path fill="#db006b" d="M6.81 26.319c9.145 8.168 21.328 1.343 21.206-8.199-6.26 5.214-13.058 8.17-21.206 8.199"/></g><g><path fill="#a0c20d" d="M9.545 2.81C-2.161 6.43-2.632 20.407 5.58 25.238 4.364 17.172 5.355 9.813 9.545 2.81"/></g><g><path fill="#bab9b9" d="M29.115 15.854c2.49-12.02-9.498-19.182-17.685-14.308 7.636 2.827 13.588 7.25 17.685 14.308"/></g></g></svg>