<svg xmlns="http://www.w3.org/2000/svg" width="88" height="30" viewBox="0 0 88 30"><g><g><path fill="#0074b8" d="M76.13 11.478l2.152 6.953h-4.205zM70.353 0L64.47 29.91h8.823l.49-3.643h4.9l.49 3.642h8.823L81.134 0z"/></g><g><path fill="#0074b8" d="M54.804 0l-4.348 8.94V0H42.45v29.91h8.006v-9.382l5.139 9.381h8.301l-6.72-15.23L63.502 0z"/></g><g><path fill="#0074b8" d="M24.22 0v29.91h15.428v-7.175h-6.697V17.88h5.68V11.7h-5.68V7.064h6.358V0z"/></g><g><path fill="#0074b8" d="M15.437 0l-3.94 13.244L8.305 0H0l6.6 29.91h8.73L23.636 0z"/></g></g></svg>